# xmcd
#
# Track frame offsets: 
#        150
#        7853
#        18780
#        31899
#        43011
#        51638
#        56357
#        65517
#        75076
#        88448
#        100798
#        113243
#        127790
#        139317
#
# Disc length: 2062 seconds
#
# Revision: 0
# Processed by: cddbd v1.5.2PL0 Copyright (c) Steve Scherf et al.
# Submitted via: ExactAudioCopy v1.1
#
DISCID=ab080c0e
DTITLE=Merle Haggard - Country
DYEAR=1900
DGENRE=Country
TTITLE0=I'm a lonesome fugitive
TTITLE1=Mama tried
TTITLE2=Blue yodel
TTITLE3=Silver wings
TTITLE4=Hobo Bill
TTITLE5=Swinging doors
TTITLE6=Today I started loving you again
TTITLE7=I can't be myself
TTITLE8=Right or wrong
TTITLE9=Okie from Muskogee
TTITLE10=Workin' man blues
TTITLE11=Medley: Sing me back home - Branded man medley
TTITLE12=Soldier's last letter
TTITLE13=Fightin' side of me
EXTD=
EXTT0=
EXTT1=
EXTT2=
EXTT3=
EXTT4=
EXTT5=
EXTT6=
EXTT7=
EXTT8=
EXTT9=
EXTT10=
EXTT11=
EXTT12=
EXTT13=
PLAYORDER=
